<svg width="42" height="43" viewBox="0 0 42 43" fill="none" xmlns="http://www.w3.org/2000/svg">
<path d="M29 10.5C29 13.2848 27.8938 15.9555 25.9246 17.9246C23.9555 19.8938 21.2848 21 18.5 21C15.7152 21 13.0445 19.8938 11.0754 17.9246C9.10625 15.9555 8 13.2848 8 10.5C8 7.71523 9.10625 5.04451 11.0754 3.07538C13.0445 1.10625 15.7152 1.33016e-06 18.5 1.57361e-06C21.2848 1.81706e-06 23.9555 1.10625 25.9246 3.07538C27.8938 5.04451 29 7.71523 29 10.5ZM26 10.5C26 8.51088 25.2098 6.60322 23.8033 5.1967C22.3968 3.79018 20.4891 3 18.5 3C16.5109 3 14.6032 3.79018 13.1967 5.1967C11.7902 6.60322 11 8.51088 11 10.5C11 12.4891 11.7902 14.3968 13.1967 15.8033C14.6032 17.2098 16.5109 18 18.5 18C20.4891 18 22.3968 17.2098 23.8033 15.8033C25.2098 14.3968 26 12.4891 26 10.5ZM5.75 24C4.35761 24 3.02225 24.5531 2.03769 25.5377C1.05312 26.5223 0.499998 27.8576 0.499997 29.25L0.499997 30C0.499997 33.5895 2.7845 36.6255 6.0275 38.6895C9.2885 40.7655 13.703 42 18.5 42C19.618 41.999 20.7105 41.934 21.7775 41.805C20.8122 40.9883 19.9664 40.04 19.265 38.988C19.011 38.996 18.756 39 18.5 39C14.1845 39 10.349 37.884 7.6385 36.159C4.9085 34.425 3.5 32.208 3.5 30L3.5 29.25C3.5 28.6533 3.73705 28.081 4.15901 27.659C4.58096 27.2371 5.15326 27 5.75 27L17.768 27C18.1432 25.9412 18.6491 24.9335 19.274 24L5.75 24ZM41.75 31.5C41.75 34.4837 40.5647 37.3452 38.4549 39.455C36.3452 41.5647 33.4837 42.75 30.5 42.75C27.5163 42.75 24.6548 41.5647 22.545 39.455C20.4353 37.3452 19.25 34.4837 19.25 31.5C19.25 28.5163 20.4353 25.6548 22.545 23.545C24.6548 21.4353 27.5163 20.25 30.5 20.25C33.4837 20.25 36.3452 21.4353 38.455 23.5451C40.5647 25.6548 41.75 28.5163 41.75 31.5ZM29.432 24.207L28.022 28.449L23.531 28.449C22.4345 28.449 21.986 29.856 22.88 30.4905L26.489 33.051L25.0955 37.239C24.7535 38.2695 25.928 39.1395 26.8145 38.511L30.5 35.8965L34.1855 38.511C35.072 39.141 36.2465 38.271 35.9045 37.239L34.5095 33.051L38.12 30.4905C39.0155 29.856 38.5655 28.449 37.469 28.449L32.978 28.449L31.568 24.207C31.226 23.181 29.774 23.181 29.432 24.207Z" fill="#F7941D"/>
</svg>
