<svg width="102" height="102" viewBox="0 0 102 102" fill="none" xmlns="http://www.w3.org/2000/svg">
<rect x="2.5" y="2.5" width="97" height="97" rx="48.5" stroke="#F7941D" stroke-width="5"/>
<rect x="4.51953" y="4.51978" width="92.9605" height="92.9605" rx="46.4803" fill="#F7941D" stroke="#FDF9F4" stroke-width="3"/>
<mask id="mask0_40_67" style="mask-type:alpha" maskUnits="userSpaceOnUse" x="20" y="20" width="62" height="62">
<rect x="20" y="20" width="62" height="62" fill="#D9D9D9"/>
</mask>
<g mask="url(#mask0_40_67)">
<path d="M35.5002 71.6667C35.5002 72.3986 35.2526 73.0121 34.7575 73.5073C34.2623 74.0024 33.6488 74.25 32.9168 74.25H25.1668C24.4349 74.25 23.8213 74.0024 23.3262 73.5073C22.8311 73.0121 22.5835 72.3986 22.5835 71.6667V63.9167C22.5835 63.1847 22.8311 62.5712 23.3262 62.076C23.8213 61.5809 24.4349 61.3333 25.1668 61.3333C25.8988 61.3333 26.5123 61.5809 27.0075 62.076C27.5026 62.5712 27.7502 63.1847 27.7502 63.9167V69.0833H32.9168C33.6488 69.0833 34.2623 69.3309 34.7575 69.826C35.2526 70.3212 35.5002 70.9347 35.5002 71.6667ZM76.8335 61.3333C77.5654 61.3333 78.179 61.5809 78.6741 62.076C79.1693 62.5712 79.4168 63.1847 79.4168 63.9167V71.6667C79.4168 72.3986 79.1693 73.0121 78.6741 73.5073C78.179 74.0024 77.5654 74.25 76.8335 74.25H69.0835C68.3516 74.25 67.738 74.0024 67.2429 73.5073C66.7477 73.0121 66.5002 72.3986 66.5002 71.6667C66.5002 70.9347 66.7477 70.3212 67.2429 69.826C67.738 69.3309 68.3516 69.0833 69.0835 69.0833H74.2502V63.9167C74.2502 63.1847 74.4977 62.5712 74.9929 62.076C75.488 61.5809 76.1016 61.3333 76.8335 61.3333ZM31.6252 66.5C31.2807 66.5 30.9793 66.3708 30.721 66.1125C30.4627 65.8542 30.3335 65.5528 30.3335 65.2083V36.7917C30.3335 36.4472 30.4627 36.1458 30.721 35.8875C30.9793 35.6292 31.2807 35.5 31.6252 35.5H34.2085C34.5529 35.5 34.8543 35.6292 35.1127 35.8875C35.371 36.1458 35.5002 36.4472 35.5002 36.7917V65.2083C35.5002 65.5528 35.371 65.8542 35.1127 66.1125C34.8543 66.3708 34.5529 66.5 34.2085 66.5H31.6252ZM39.3752 66.5C39.0307 66.5 38.7293 66.3708 38.471 66.1125C38.2127 65.8542 38.0835 65.5528 38.0835 65.2083V36.7917C38.0835 36.4472 38.2127 36.1458 38.471 35.8875C38.7293 35.6292 39.0307 35.5 39.3752 35.5C39.7196 35.5 40.021 35.6292 40.2793 35.8875C40.5377 36.1458 40.6668 36.4472 40.6668 36.7917V65.2083C40.6668 65.5528 40.5377 65.8542 40.2793 66.1125C40.021 66.3708 39.7196 66.5 39.3752 66.5ZM47.1252 66.5C46.7807 66.5 46.4793 66.3708 46.221 66.1125C45.9627 65.8542 45.8335 65.5528 45.8335 65.2083V36.7917C45.8335 36.4472 45.9627 36.1458 46.221 35.8875C46.4793 35.6292 46.7807 35.5 47.1252 35.5H49.7085C50.0529 35.5 50.3543 35.6292 50.6127 35.8875C50.871 36.1458 51.0002 36.4472 51.0002 36.7917V65.2083C51.0002 65.5528 50.871 65.8542 50.6127 66.1125C50.3543 66.3708 50.0529 66.5 49.7085 66.5H47.1252ZM54.8752 66.5C54.5307 66.5 54.2293 66.3708 53.971 66.1125C53.7127 65.8542 53.5835 65.5528 53.5835 65.2083V36.7917C53.5835 36.4472 53.7127 36.1458 53.971 35.8875C54.2293 35.6292 54.5307 35.5 54.8752 35.5H60.0418C60.3863 35.5 60.6877 35.6292 60.946 35.8875C61.2043 36.1458 61.3335 36.4472 61.3335 36.7917V65.2083C61.3335 65.5528 61.2043 65.8542 60.946 66.1125C60.6877 66.3708 60.3863 66.5 60.0418 66.5H54.8752ZM65.2085 66.5C64.8641 66.5 64.5627 66.3708 64.3043 66.1125C64.046 65.8542 63.9168 65.5528 63.9168 65.2083V36.7917C63.9168 36.4472 64.046 36.1458 64.3043 35.8875C64.5627 35.6292 64.8641 35.5 65.2085 35.5C65.5529 35.5 65.8543 35.6292 66.1127 35.8875C66.371 36.1458 66.5002 36.4472 66.5002 36.7917V65.2083C66.5002 65.5528 66.371 65.8542 66.1127 66.1125C65.8543 66.3708 65.5529 66.5 65.2085 66.5ZM70.3752 66.5C70.0307 66.5 69.7293 66.3708 69.471 66.1125C69.2127 65.8542 69.0835 65.5528 69.0835 65.2083V36.7917C69.0835 36.4472 69.2127 36.1458 69.471 35.8875C69.7293 35.6292 70.0307 35.5 70.3752 35.5C70.7196 35.5 71.021 35.6292 71.2793 35.8875C71.5377 36.1458 71.6668 36.4472 71.6668 36.7917V65.2083C71.6668 65.5528 71.5377 65.8542 71.2793 66.1125C71.021 66.3708 70.7196 66.5 70.3752 66.5ZM35.5002 30.3333C35.5002 31.0653 35.2526 31.6788 34.7575 32.174C34.2623 32.6691 33.6488 32.9167 32.9168 32.9167H27.7502V38.0833C27.7502 38.8153 27.5026 39.4288 27.0075 39.924C26.5123 40.4191 25.8988 40.6667 25.1668 40.6667C24.4349 40.6667 23.8213 40.4191 23.3262 39.924C22.8311 39.4288 22.5835 38.8153 22.5835 38.0833V30.3333C22.5835 29.6014 22.8311 28.9878 23.3262 28.4927C23.8213 27.9976 24.4349 27.75 25.1668 27.75H32.9168C33.6488 27.75 34.2623 27.9976 34.7575 28.4927C35.2526 28.9878 35.5002 29.6014 35.5002 30.3333ZM66.5002 30.3333C66.5002 29.6014 66.7477 28.9878 67.2429 28.4927C67.738 27.9976 68.3516 27.75 69.0835 27.75H76.8335C77.5654 27.75 78.179 27.9976 78.6741 28.4927C79.1693 28.9878 79.4168 29.6014 79.4168 30.3333V38.0833C79.4168 38.8153 79.1693 39.4288 78.6741 39.924C78.179 40.4191 77.5654 40.6667 76.8335 40.6667C76.1016 40.6667 75.488 40.4191 74.9929 39.924C74.4977 39.4288 74.2502 38.8153 74.2502 38.0833V32.9167H69.0835C68.3516 32.9167 67.738 32.6691 67.2429 32.174C66.7477 31.6788 66.5002 31.0653 66.5002 30.3333Z" fill="#FDF9F4"/>
</g>
</svg>
