<svg width="102" height="102" viewBox="0 0 102 102" fill="none" xmlns="http://www.w3.org/2000/svg">
<rect x="2.5" y="2.5" width="97" height="97" rx="48.5" stroke="#F7941D" stroke-width="5"/>
<rect x="4.51953" y="4.51978" width="92.9605" height="92.9605" rx="46.4803" fill="#F7941D" stroke="#FDF9F4" stroke-width="3"/>
<path d="M33.75 64C33.75 65.3703 34.2943 66.6845 35.2633 67.6534C36.2322 68.6224 37.5464 69.1667 38.9167 69.1667C40.287 69.1667 41.6011 68.6224 42.5701 67.6534C43.539 66.6845 44.0833 65.3703 44.0833 64C44.0833 62.6298 43.539 61.3156 42.5701 60.3467C41.6011 59.3777 40.287 58.8334 38.9167 58.8334C37.5464 58.8334 36.2322 59.3777 35.2633 60.3467C34.2943 61.3156 33.75 62.6298 33.75 64ZM59.5833 64C59.5833 65.3703 60.1277 66.6845 61.0966 67.6534C62.0656 68.6224 63.3797 69.1667 64.75 69.1667C66.1203 69.1667 67.4344 68.6224 68.4034 67.6534C69.3723 66.6845 69.9167 65.3703 69.9167 64C69.9167 62.6298 69.3723 61.3156 68.4034 60.3467C67.4344 59.3777 66.1203 58.8334 64.75 58.8334C63.3797 58.8334 62.0656 59.3777 61.0966 60.3467C60.1277 61.3156 59.5833 62.6298 59.5833 64Z" stroke="#FDF9F4" stroke-width="3" stroke-linecap="round" stroke-linejoin="round"/>
<path d="M33.75 64H28.5833V53.6667M26 33H54.4167V64M44.0833 64H59.5833M69.9167 64H75.0833V48.5M75.0833 48.5H54.4167M75.0833 48.5L67.3333 35.5833H54.4167M28.5833 43.3333H38.9167" stroke="#FDF9F4" stroke-width="3" stroke-linecap="round" stroke-linejoin="round"/>
</svg>
