<svg width="22" height="23" viewBox="0 0 22 23" fill="none" xmlns="http://www.w3.org/2000/svg">
<path d="M6.5835 22.3333C5.98766 22.3333 5.47759 22.1212 5.05329 21.6969C4.62898 21.2726 4.41683 20.7625 4.41683 20.1667C4.41683 19.5708 4.62898 19.0608 5.05329 18.6364C5.47759 18.2121 5.98766 18 6.5835 18C7.17933 18 7.6894 18.2121 8.1137 18.6364C8.53801 19.0608 8.75016 19.5708 8.75016 20.1667C8.75016 20.7625 8.53801 21.2726 8.1137 21.6969C7.6894 22.1212 7.17933 22.3333 6.5835 22.3333ZM17.4168 22.3333C16.821 22.3333 16.3109 22.1212 15.8866 21.6969C15.4623 21.2726 15.2502 20.7625 15.2502 20.1667C15.2502 19.5708 15.4623 19.0608 15.8866 18.6364C16.3109 18.2121 16.821 18 17.4168 18C18.0127 18 18.5227 18.2121 18.947 18.6364C19.3713 19.0608 19.5835 19.5708 19.5835 20.1667C19.5835 20.7625 19.3713 21.2726 18.947 21.6969C18.5227 22.1212 18.0127 22.3333 17.4168 22.3333ZM5.66266 4.99999L8.26266 10.4167H15.846L18.8252 4.99999H5.66266ZM4.6335 2.83332H20.6127C21.0279 2.83332 21.3439 3.01839 21.5606 3.38853C21.7772 3.75867 21.7863 4.13332 21.5877 4.51249L17.7418 11.4458C17.5432 11.8069 17.2769 12.0868 16.9429 12.2854C16.6088 12.484 16.2432 12.5833 15.846 12.5833H7.77516L6.5835 14.75H18.5002C18.8071 14.75 19.0644 14.8538 19.272 15.0614C19.4797 15.2691 19.5835 15.5264 19.5835 15.8333C19.5835 16.1403 19.4797 16.3976 19.272 16.6052C19.0644 16.8128 18.8071 16.9167 18.5002 16.9167H6.5835C5.771 16.9167 5.15711 16.5601 4.74183 15.8469C4.32655 15.1337 4.3085 14.425 4.68766 13.7208L6.15016 11.0667L2.25016 2.83332H1.16683C0.859885 2.83332 0.602593 2.7295 0.394954 2.52186C0.187316 2.31423 0.0834961 2.05693 0.0834961 1.74999C0.0834961 1.44305 0.187316 1.18575 0.394954 0.978115C0.602593 0.770476 0.859885 0.666656 1.16683 0.666656H2.92725C3.12586 0.666656 3.31544 0.720823 3.496 0.829156C3.67655 0.93749 3.81197 1.09096 3.90225 1.28957L4.6335 2.83332Z" fill="#FDF9F4"/>
</svg>
