<svg width="102" height="102" viewBox="0 0 102 102" fill="none" xmlns="http://www.w3.org/2000/svg">
<rect x="2.5" y="2.5" width="97" height="97" rx="48.5" stroke="#F7941D" stroke-width="5"/>
<rect x="4.5" y="4.5" width="92.9605" height="92.9605" rx="46.4803" fill="#F7941D" stroke="#FDF9F4" stroke-width="3"/>
<path d="M51 41.6667V51L58 58M72 51C72 53.7578 71.4568 56.4885 70.4015 59.0364C69.3461 61.5842 67.7993 63.8992 65.8492 65.8492C63.8992 67.7993 61.5842 69.3461 59.0364 70.4015C56.4885 71.4568 53.7578 72 51 72C48.2422 72 45.5115 71.4568 42.9636 70.4015C40.4158 69.3461 38.1008 67.7993 36.1508 65.8492C34.2007 63.8992 32.6539 61.5842 31.5985 59.0364C30.5432 56.4885 30 53.7578 30 51C30 45.4305 32.2125 40.089 36.1508 36.1508C40.089 32.2125 45.4305 30 51 30C56.5695 30 61.911 32.2125 65.8492 36.1508C69.7875 40.089 72 45.4305 72 51Z" stroke="#FDF9F4" stroke-width="4" stroke-linecap="round" stroke-linejoin="round"/>
</svg>
