<svg width="34" height="44" viewBox="0 0 34 44" fill="none" xmlns="http://www.w3.org/2000/svg">
<path d="M26.8335 43.6667C28.0259 43.67 29.1963 43.3453 30.2165 42.728C31.2368 42.1107 32.0675 41.2247 32.6179 40.1669C33.1683 39.1091 33.4171 37.9202 33.3371 36.7305C33.2571 35.5408 32.8513 34.3959 32.1642 33.4214C31.4772 32.4468 30.5352 31.68 29.4415 31.2049C28.3478 30.7298 27.1445 30.5647 25.9633 30.7277C24.782 30.8907 23.6684 31.3755 22.7442 32.129C21.8201 32.8825 21.121 33.8757 20.7235 35L9.80349 35L14.1152 28.37C15.366 28.5416 16.6344 28.5416 17.8852 28.37L20.0952 31.75C21.0052 30.6666 22.1752 29.7133 23.5835 29.15L22.2618 27.135C24.9147 25.9324 27.1652 23.9914 28.7444 21.544C30.3235 19.0965 31.1645 16.246 31.1668 13.3333L0.833495 13.3333C0.8377 16.2484 1.68191 19.1005 3.26506 21.5483C4.84821 23.996 7.10322 25.9356 9.76016 27.135L1.20183 40.3083C0.938833 40.787 0.866345 41.3474 0.998871 41.8773C1.1314 42.4071 1.45916 42.8674 1.91655 43.166C2.37394 43.4645 2.92721 43.5793 3.4656 43.4873C4.004 43.3953 4.4878 43.1034 4.82016 42.67L6.98683 39.3333L20.7235 39.3333C21.1705 40.5977 21.9976 41.6928 23.0915 42.4686C24.1854 43.2444 25.4924 43.6629 26.8335 43.6667ZM26.8335 35C27.4081 35 27.9592 35.2283 28.3656 35.6346C28.7719 36.0409 29.0002 36.592 29.0002 37.1667C29.0002 38.3583 28.0252 39.3333 26.8335 39.3333C25.6418 39.3333 24.6668 38.3583 24.6668 37.1667C24.6668 36.592 24.8951 36.0409 25.3014 35.6346C25.7078 35.2283 26.2589 35 26.8335 35ZM6.07683 17.6666L25.9235 17.6666C25.0788 19.5953 23.6904 21.2361 21.928 22.3882C20.1656 23.5403 18.1057 24.1539 16.0002 24.1539C13.8946 24.1539 11.8347 23.5403 10.0723 22.3882C8.30996 21.2361 6.92153 19.5953 6.07683 17.6666ZM10.3885 11.1666L12.5552 11.1666C12.8802 8.67498 13.0535 7.61331 10.5835 4.75331C9.71683 3.66998 9.1535 3.08498 9.63016 0.333314L7.48516 0.333314C7.22619 1.47785 7.26767 2.66991 7.60556 3.79368C7.94345 4.91745 8.56627 5.93472 9.4135 6.74665C9.89016 7.26665 11.1252 8.19831 10.3885 11.1666ZM15.7618 11.1666L17.9285 11.1666C18.2535 8.67498 18.4268 7.61331 16.0002 4.75331C15.0902 3.66998 14.5268 3.06331 15.0035 0.333314L12.8585 0.333314C12.5995 1.47785 12.641 2.66991 12.9789 3.79368C13.3168 4.91745 13.9396 5.93472 14.7868 6.74665C15.2852 7.26665 16.5202 8.19831 15.7618 11.1666ZM21.2218 11.1666L23.3885 11.1666C23.7135 8.67498 23.8868 7.61332 21.4168 4.75331C20.5502 3.66998 19.9868 3.08498 20.4635 0.333315L18.3185 0.333315C18.0595 1.47785 18.101 2.66991 18.4389 3.79368C18.7768 4.91745 19.3996 5.93472 20.2468 6.74665C20.7235 7.26665 21.9585 8.19832 21.2218 11.1666Z" fill="#F7941D"/>
</svg>
