<svg width="102" height="102" viewBox="0 0 102 102" fill="none" xmlns="http://www.w3.org/2000/svg">
<rect x="2.5" y="2.5" width="97" height="97" rx="48.5" stroke="#F7941D" stroke-width="5"/>
<rect x="4.5" y="4.5" width="92.9605" height="92.9605" rx="46.4803" fill="#F7941D" stroke="#FDF9F4" stroke-width="3"/>
<path d="M33.5008 61.2166C29.2775 62.4836 26.6665 64.2336 26.6665 66.1667C26.6665 70.0331 37.1128 73.1667 49.9998 73.1667C62.8868 73.1667 73.3332 70.0331 73.3332 66.1667C73.3332 64.2336 70.721 62.4836 66.4988 61.2166" stroke="#FDF9F4" stroke-width="4" stroke-linecap="round" stroke-linejoin="round"/>
<path d="M49.9997 63.8334C49.9997 63.8334 65.1663 53.9214 65.1663 42.4624C65.1663 34.2911 58.3763 27.6667 49.9997 27.6667C41.623 27.6667 34.833 34.2911 34.833 42.4624C34.833 53.9214 49.9997 63.8334 49.9997 63.8334Z" stroke="#FDF9F4" stroke-width="4" stroke-linejoin="round"/>
<path d="M49.9998 48.6667C51.5469 48.6667 53.0307 48.0521 54.1246 46.9581C55.2186 45.8642 55.8332 44.3804 55.8332 42.8333C55.8332 41.2862 55.2186 39.8025 54.1246 38.7085C53.0307 37.6146 51.5469 37 49.9998 37C48.4527 37 46.969 37.6146 45.875 38.7085C44.7811 39.8025 44.1665 41.2862 44.1665 42.8333C44.1665 44.3804 44.7811 45.8642 45.875 46.9581C46.969 48.0521 48.4527 48.6667 49.9998 48.6667Z" stroke="#FDF9F4" stroke-width="4" stroke-linejoin="round"/>
</svg>
