<svg width="26" height="27" viewBox="0 0 26 27" fill="none" xmlns="http://www.w3.org/2000/svg">
<path d="M11.375 3.75H4.875C4.44402 3.75 4.0307 3.9212 3.72595 4.22595C3.4212 4.5307 3.25 4.94402 3.25 5.375V17.2917C3.25 17.7226 3.4212 18.136 3.72595 18.4407C4.0307 18.7455 4.44402 18.9167 4.875 18.9167H21.125C21.556 18.9167 21.9693 18.7455 22.274 18.4407C22.5788 18.136 22.75 17.7226 22.75 17.2917V11.875M13 18.9167V23.25" stroke="#FDF9F4" stroke-width="2" stroke-linecap="round" stroke-linejoin="round"/>
<path d="M17.3335 3.75L15.1668 5.91667L17.3335 8.08333M20.5835 3.75L22.7502 5.91667L20.5835 8.08333M7.5835 23.25H18.4168" stroke="#FDF9F4" stroke-width="2" stroke-linecap="round" stroke-linejoin="round"/>
</svg>
