<svg width="22" height="21" viewBox="0 0 22 21" fill="none" xmlns="http://www.w3.org/2000/svg">
<path d="M20.9646 9.84717L16.7459 13.4875L18.0312 18.9315C18.1021 19.2271 18.0838 19.537 17.9787 19.8222C17.8736 20.1073 17.6863 20.3549 17.4405 20.5337C17.1947 20.7125 16.9015 20.8144 16.5978 20.8266C16.2941 20.8388 15.9936 20.7607 15.7343 20.6022L10.9999 17.6884L6.26275 20.6022C6.00347 20.7598 5.70335 20.8371 5.4002 20.8245C5.09704 20.8118 4.8044 20.7098 4.55913 20.5312C4.31386 20.3525 4.12692 20.1053 4.02185 19.8207C3.91679 19.5361 3.89829 19.2267 3.96869 18.9315L5.25869 13.4875L1.03994 9.84717C0.810533 9.6489 0.644621 9.38744 0.562925 9.09544C0.481229 8.80343 0.48737 8.49383 0.580581 8.2053C0.673791 7.91677 0.849941 7.66209 1.08703 7.47307C1.32412 7.28405 1.61164 7.16907 1.91369 7.14249L7.44494 6.69624L9.57869 1.53249C9.69419 1.25107 9.89076 1.01034 10.1434 0.840929C10.3961 0.671513 10.6934 0.581055 10.9976 0.581055C11.3018 0.581055 11.5991 0.671513 11.8518 0.840929C12.1044 1.01034 12.301 1.25107 12.4165 1.53249L14.5493 6.69624L20.0806 7.14249C20.3832 7.16808 20.6716 7.28242 20.9095 7.47118C21.1475 7.65994 21.3244 7.91472 21.4182 8.2036C21.512 8.49248 21.5185 8.80262 21.4368 9.09516C21.3551 9.38769 21.1889 9.64962 20.959 9.84811L20.9646 9.84717Z" fill="#F7941D"/>
</svg>
