<svg width="152" height="25" viewBox="0 0 152 25" fill="none" xmlns="http://www.w3.org/2000/svg">
<path d="M149.965 10.8472L145.746 14.4875L147.031 19.9315C147.102 20.2271 147.084 20.537 146.979 20.8222C146.874 21.1073 146.686 21.3549 146.441 21.5337C146.195 21.7125 145.901 21.8144 145.598 21.8266C145.294 21.8388 144.994 21.7607 144.734 21.6022L140 18.6884L135.263 21.6022C135.003 21.7598 134.703 21.8371 134.4 21.8245C134.097 21.8118 133.804 21.7098 133.559 21.5312C133.314 21.3525 133.127 21.1053 133.022 20.8207C132.917 20.5361 132.898 20.2267 132.969 19.9315L134.259 14.4875L130.04 10.8472C129.811 10.6489 129.645 10.3874 129.563 10.0954C129.481 9.80343 129.487 9.49383 129.581 9.2053C129.674 8.91677 129.85 8.66209 130.087 8.47307C130.324 8.28405 130.612 8.16907 130.914 8.14249L136.445 7.69624L138.579 2.53249C138.694 2.25107 138.891 2.01034 139.143 1.84093C139.396 1.67151 139.693 1.58105 139.998 1.58105C140.302 1.58105 140.599 1.67151 140.852 1.84093C141.104 2.01034 141.301 2.25107 141.417 2.53249L143.549 7.69624L149.081 8.14249C149.383 8.16808 149.672 8.28242 149.91 8.47118C150.147 8.65994 150.324 8.91472 150.418 9.2036C150.512 9.49248 150.518 9.80262 150.437 10.0952C150.355 10.3877 150.189 10.6496 149.959 10.8481L149.965 10.8472Z" fill="#F7941D"/>
<path d="M117.965 10.8472L113.746 14.4875L115.031 19.9315C115.102 20.2271 115.084 20.537 114.979 20.8222C114.874 21.1073 114.686 21.3549 114.441 21.5337C114.195 21.7125 113.901 21.8144 113.598 21.8266C113.294 21.8388 112.994 21.7607 112.734 21.6022L108 18.6884L103.263 21.6022C103.003 21.7598 102.703 21.8371 102.4 21.8245C102.097 21.8118 101.804 21.7098 101.559 21.5312C101.314 21.3525 101.127 21.1053 101.022 20.8207C100.917 20.5361 100.898 20.2267 100.969 19.9315L102.259 14.4875L98.0399 10.8472C97.8105 10.6489 97.6446 10.3874 97.5629 10.0954C97.4812 9.80343 97.4874 9.49383 97.5806 9.2053C97.6738 8.91677 97.8499 8.66209 98.087 8.47307C98.3241 8.28405 98.6116 8.16907 98.9137 8.14249L104.445 7.69624L106.579 2.53249C106.694 2.25107 106.891 2.01034 107.143 1.84093C107.396 1.67151 107.693 1.58105 107.998 1.58105C108.302 1.58105 108.599 1.67151 108.852 1.84093C109.104 2.01034 109.301 2.25107 109.417 2.53249L111.549 7.69624L117.081 8.14249C117.383 8.16808 117.672 8.28242 117.91 8.47118C118.147 8.65994 118.324 8.91472 118.418 9.2036C118.512 9.49248 118.518 9.80262 118.437 10.0952C118.355 10.3877 118.189 10.6496 117.959 10.8481L117.965 10.8472Z" fill="#F7941D"/>
<path d="M85.9646 10.8472L81.7459 14.4875L83.0312 19.9315C83.1021 20.2271 83.0838 20.537 82.9787 20.8222C82.8736 21.1073 82.6863 21.3549 82.4405 21.5337C82.1947 21.7125 81.9015 21.8144 81.5978 21.8266C81.2941 21.8388 80.9936 21.7607 80.7343 21.6022L75.9999 18.6884L71.2628 21.6022C71.0035 21.7598 70.7034 21.8371 70.4002 21.8245C70.097 21.8118 69.8044 21.7098 69.5591 21.5312C69.3139 21.3525 69.1269 21.1053 69.0219 20.8207C68.9168 20.5361 68.8983 20.2267 68.9687 19.9315L70.2587 14.4875L66.0399 10.8472C65.8105 10.6489 65.6446 10.3874 65.5629 10.0954C65.4812 9.80343 65.4874 9.49383 65.5806 9.2053C65.6738 8.91677 65.8499 8.66209 66.087 8.47307C66.3241 8.28405 66.6116 8.16907 66.9137 8.14249L72.4449 7.69624L74.5787 2.53249C74.6942 2.25107 74.8908 2.01034 75.1434 1.84093C75.3961 1.67151 75.6934 1.58105 75.9976 1.58105C76.3018 1.58105 76.5991 1.67151 76.8518 1.84093C77.1044 2.01034 77.301 2.25107 77.4165 2.53249L79.5493 7.69624L85.0806 8.14249C85.3832 8.16808 85.6716 8.28242 85.9095 8.47118C86.1475 8.65994 86.3244 8.91472 86.4182 9.2036C86.512 9.49248 86.5185 9.80262 86.4368 10.0952C86.3551 10.3877 86.1889 10.6496 85.959 10.8481L85.9646 10.8472Z" fill="#F7941D"/>
<path d="M53.9646 10.8472L49.7459 14.4875L51.0312 19.9315C51.1021 20.2271 51.0838 20.537 50.9787 20.8222C50.8736 21.1073 50.6863 21.3549 50.4405 21.5337C50.1947 21.7125 49.9015 21.8144 49.5978 21.8266C49.2941 21.8388 48.9936 21.7607 48.7343 21.6022L43.9999 18.6884L39.2628 21.6022C39.0035 21.7598 38.7034 21.8371 38.4002 21.8245C38.097 21.8118 37.8044 21.7098 37.5591 21.5312C37.3139 21.3525 37.1269 21.1053 37.0219 20.8207C36.9168 20.5361 36.8983 20.2267 36.9687 19.9315L38.2587 14.4875L34.0399 10.8472C33.8105 10.6489 33.6446 10.3874 33.5629 10.0954C33.4812 9.80343 33.4874 9.49383 33.5806 9.2053C33.6738 8.91677 33.8499 8.66209 34.087 8.47307C34.3241 8.28405 34.6116 8.16907 34.9137 8.14249L40.4449 7.69624L42.5787 2.53249C42.6942 2.25107 42.8908 2.01034 43.1434 1.84093C43.3961 1.67151 43.6934 1.58105 43.9976 1.58105C44.3018 1.58105 44.5991 1.67151 44.8518 1.84093C45.1044 2.01034 45.301 2.25107 45.4165 2.53249L47.5493 7.69624L53.0806 8.14249C53.3832 8.16808 53.6716 8.28242 53.9095 8.47118C54.1475 8.65994 54.3244 8.91472 54.4182 9.2036C54.512 9.49248 54.5185 9.80262 54.4368 10.0952C54.3551 10.3877 54.1889 10.6496 53.959 10.8481L53.9646 10.8472Z" fill="#F7941D"/>
<path d="M21.9646 10.8472L17.7459 14.4875L19.0312 19.9315C19.1021 20.2271 19.0838 20.537 18.9787 20.8222C18.8736 21.1073 18.6863 21.3549 18.4405 21.5337C18.1947 21.7125 17.9015 21.8144 17.5978 21.8266C17.2941 21.8388 16.9936 21.7607 16.7343 21.6022L11.9999 18.6884L7.26275 21.6022C7.00347 21.7598 6.70335 21.8371 6.4002 21.8245C6.09704 21.8118 5.8044 21.7098 5.55913 21.5312C5.31386 21.3525 5.12692 21.1053 5.02185 20.8207C4.91679 20.5361 4.89829 20.2267 4.96869 19.9315L6.25869 14.4875L2.03994 10.8472C1.81053 10.6489 1.64462 10.3874 1.56293 10.0954C1.48123 9.80343 1.48737 9.49383 1.58058 9.2053C1.67379 8.91677 1.84994 8.66209 2.08703 8.47307C2.32412 8.28405 2.61164 8.16907 2.91369 8.14249L8.44494 7.69624L10.5787 2.53249C10.6942 2.25107 10.8908 2.01034 11.1434 1.84093C11.3961 1.67151 11.6934 1.58105 11.9976 1.58105C12.3018 1.58105 12.5991 1.67151 12.8518 1.84093C13.1044 2.01034 13.301 2.25107 13.4165 2.53249L15.5493 7.69624L21.0806 8.14249C21.3832 8.16808 21.6716 8.28242 21.9095 8.47118C22.1475 8.65994 22.3244 8.91472 22.4182 9.2036C22.512 9.49248 22.5185 9.80262 22.4368 10.0952C22.3551 10.3877 22.1889 10.6496 21.959 10.8481L21.9646 10.8472Z" fill="#F7941D"/>
</svg>
