<svg width="102" height="102" viewBox="0 0 102 102" fill="none" xmlns="http://www.w3.org/2000/svg">
<rect x="2.5" y="2.5" width="97" height="97" rx="48.5" stroke="#F7941D" stroke-width="5"/>
<rect x="4.51953" y="4.51978" width="92.9605" height="92.9605" rx="46.4803" fill="#F7941D" stroke="#FDF9F4" stroke-width="3"/>
<path d="M30 72H34.6667M34.6667 72H67.3333M34.6667 72V44.7653M72 72H67.3333M67.3333 72V44.7653M34.6667 44.7653C34.5794 44.7152 34.4938 44.6623 34.41 44.6067L33.15 43.7667C32.2593 43.1725 31.5999 42.2902 31.2826 41.2676C30.9652 40.245 31.0091 39.1444 31.407 38.1503L33.493 32.933C33.8395 32.0671 34.4374 31.3249 35.2098 30.8021C35.9821 30.2793 36.8934 29.9999 37.826 30H64.174C65.1066 29.9999 66.0179 30.2793 66.7902 30.8021C67.5626 31.3249 68.1605 32.0671 68.507 32.933L70.593 38.1503C70.9909 39.1444 71.0348 40.245 70.7174 41.2676C70.4001 42.2902 69.7407 43.1725 68.85 43.7667L67.59 44.6067C67.5062 44.6623 67.4206 44.7152 67.3333 44.7653M34.6667 44.7653C35.4204 45.2007 36.281 45.4165 37.151 45.3885C38.021 45.3605 38.8658 45.0897 39.59 44.6067L44 41.6667L48.41 44.6067C49.1769 45.1183 50.0781 45.3914 51 45.3914C51.9219 45.3914 52.8231 45.1183 53.59 44.6067L58 41.6667L62.41 44.6067C63.1342 45.0897 63.979 45.3605 64.849 45.3885C65.719 45.4165 66.5796 45.2007 67.3333 44.7653" stroke="#FDF9F4" stroke-width="4" stroke-linecap="round" stroke-linejoin="round"/>
<path d="M55.6668 72V60.3333C55.6668 59.0956 55.1752 57.9086 54.3 57.0335C53.4248 56.1583 52.2378 55.6666 51.0002 55.6666C49.7625 55.6666 48.5755 56.1583 47.7003 57.0335C46.8252 57.9086 46.3335 59.0956 46.3335 60.3333V72" stroke="#FDF9F4" stroke-width="4"/>
</svg>
